<?xml version="1.0" encoding="UTF-8" standalone="no"?><!DOCTYPE svg PUBLIC "-//W3C//DTD SVG 1.1//EN" "http://www.w3.org/Graphics/SVG/1.1/DTD/svg11.dtd"><svg width="100%" height="100%" viewBox="0 0 2000 2000" version="1.1" xmlns="http://www.w3.org/2000/svg" xmlns:xlink="http://www.w3.org/1999/xlink" xml:space="preserve" xmlns:serif="http://www.serif.com/" style="fill-rule:evenodd;clip-rule:evenodd;stroke-linejoin:round;stroke-miterlimit:2;"><g><path d="M1220.618,1884.588c-7.247,4.439 -177.591,103.924 -180.794,105.6c-56.185,29.397 -86.593,-8.151 -250.248,-100.68c-10.207,-5.771 -435.664,-253.205 -583.924,-340.452c-74.816,-44.028 -89.863,-44.714 -89.782,-116.776c0.081,-71.915 1.004,-896.354 1.297,-898.932c4.952,-43.666 33.88,-51.176 186.156,-140.129c52.996,-30.958 647.767,-378.398 663.415,-385.312c43.898,-19.397 51.46,-8.629 230.995,95.543c52.425,30.419 646.348,375.034 655.133,380.538c29.715,18.619 30.827,50.249 31.005,55.319c0.539,15.339 0.063,863.947 0.137,892.978c0.202,79.233 -19.371,75.34 -106.812,128.251c-106.55,64.474 -511.947,298.31 -556.578,324.054Z" style="fill:#001b4d;"/><path d="M998.985,82.359c2.755,0.476 8.8,1.521 31.599,14.937c120.489,70.906 760.193,442.196 766.166,445.813c10.318,6.25 9.651,8.822 9.57,108.588c-0.644,791.868 2.792,793.584 -3.445,801.065c-6.901,8.278 -511.65,298.561 -556.304,324.242c-186.34,107.165 -238.753,143.721 -250.623,140.188c-7.959,-2.368 -713.497,-414.838 -775.454,-451.059c-29.322,-17.142 -25.456,-22.813 -25.376,-69.329c0.932,-544.157 -2.179,-840.864 2.513,-848.589c4.326,-7.124 229.032,-135.066 249.124,-146.506c168.969,-96.206 535.954,-314.906 552.23,-319.351Z" style="fill:#ddbe84;"/><path d="M1510.424,1137.972c109.301,0.108 128.275,-4.28 134.781,31.294c8.167,44.657 -40.928,44.922 -46.078,44.95c-92.372,0.499 -102.765,-2.28 -102.992,5.241c-1.247,41.428 23.231,191.41 -116.176,253.349c-68.53,30.448 -162.882,5.295 -164.178,21.646c-3.299,41.621 8.999,121.133 -10.549,141.221c-18.478,18.987 -63.125,16.043 -63.806,-28.948c-1.697,-112.133 2.416,-117.765 -6.528,-117.898c-91.986,-1.363 -95.956,-2.1 -96.786,5.611c-3.534,32.839 9.29,120.291 -10.548,140.994c-17.933,18.715 -63.029,16.703 -64.015,-28.702c-0.931,-42.846 3.113,-115.028 -3.394,-117.407c-1.101,-0.403 -95.311,-1.904 -98.284,0.821c-7.645,7.006 6.09,119.403 -8.237,139.983c-19.366,27.819 -67.856,22.174 -68.171,-23.389c-0.77,-111.461 4.088,-116.893 -5.395,-117.935c-46.766,-5.136 -185.854,30.719 -256.293,-110.178c-34.284,-68.579 -7.138,-164.187 -24.608,-164.421c-91.271,-1.225 -138.745,10.893 -143.824,-33.374c-4.796,-41.798 35.67,-42.581 40.369,-42.672c59.335,-1.148 107.726,3.579 109.337,-4.524c1.383,-6.959 0.501,-7.025 0.251,-88.687c-0.004,-1.169 0.967,-9.051 -6.047,-9.243c-82.895,-2.269 -137.691,12.952 -143.683,-32.32c-7.09,-53.574 68.767,-43.2 75.633,-43.197c63.235,0.022 73.918,2.456 74.082,-6.89c1.597,-91.162 1.716,-95.346 -5.942,-95.592c-83.426,-2.681 -140.78,14.525 -143.773,-37.488c-2.786,-48.409 63.716,-39.499 96.338,-39.509c41.593,-0.013 53.606,2.81 53.632,-7.773c0.15,-62.065 -15.396,-170.706 85.919,-235.618c79.902,-51.192 191.079,-16.531 193.962,-33.544c3.298,-19.457 -7.663,-118.42 7.755,-137.895c19.318,-24.401 66.478,-17.236 67.073,25.62c1.55,111.714 -1.663,115.758 5.398,116.631c6.354,0.786 6.339,-0.35 80.027,0.091c11.982,0.072 17.795,4.765 17.952,-7.314c1.364,-104.886 -9.154,-136.873 26.454,-147.671c3.183,-0.965 47.096,-9.061 48.014,41.216c0.655,35.862 -1.93,109.125 1.972,112.68c1.585,1.444 97.348,2.758 100.322,-0.71c6.774,-7.898 -8.082,-119.851 9.456,-141.413c20.355,-25.026 64.07,-12.558 65.959,20.495c1.54,26.951 -1.899,117.474 1.897,121.321c13.722,13.909 182.221,-43.202 258.959,110.009c35.66,71.197 9.032,162.793 24.988,163.843c60.348,3.971 140.72,-17.698 143.576,36.642c2.112,40.173 -38.418,40.319 -43.143,40.336c-90.229,0.326 -105.865,-3.339 -105.973,6.94c-0.958,90.614 -2.27,94.385 5.294,95.584c29.823,4.727 114.475,-12.47 135.447,14.361c15.43,19.742 8.775,60.43 -31.812,61.086c-103.082,1.667 -108.586,-2.416 -108.79,6.399c-0.174,7.494 -2.064,89.079 0.682,93.694c1.457,2.447 2.037,1.394 13.499,2.252Z" style="fill:#ddbe84;"/><path d="M1137.871,588.648c182.188,0.144 183.203,-2.007 212.407,10.846c26.636,11.722 52.372,39.452 61.439,73.24c3.921,14.612 4.828,14.63 4.564,534.836c-0.037,73.677 11.8,150.24 -63.038,188.303c-34.011,17.298 -36.272,12.076 -564.267,12.646c-78.543,0.085 -161.212,12.92 -196.871,-74.273c-9.771,-23.892 -7.38,-24.943 -7.652,-567.23c-0.023,-45.675 -13.237,-138.583 69.01,-170.217c26.095,-10.037 26.949,-7.879 484.409,-8.15Z" style="fill:#ddbe84;"/><path d="M851.071,1280.483c-38.013,-0.001 -91.366,7.423 -119.794,-38.268c-11.459,-18.418 -11.529,-19.704 -11.095,-220.926c0.527,-244.61 -6.059,-250.988 25.16,-280.067c21.574,-20.096 24.693,-19.464 223.996,-18.937c257.941,0.683 265.945,-6.792 294.476,28.021c23.254,28.374 17.878,32.453 18.379,294.643c0.122,63.585 17.159,184.189 -102.874,227.814c-21.967,7.984 -22.434,8.006 -328.249,7.72Z" style="fill:#ddbe84;"/><path d="M812.634,800.528c78.846,0 157.692,0 236.538,0c146.795,0.213 154.356,-2.822 154.854,10.718c0.591,16.093 0.287,204.011 0.146,207.257c-0.459,10.535 -5.645,5.229 -16.192,4.184c-77.264,-7.659 -129.504,51.223 -130.41,107.994c-0.67,41.939 18.453,66.327 18.618,67.965c0.418,4.153 -16.656,4.148 -18.146,4.147c-251.641,-0.079 -252.894,0.668 -257.338,-3.999c-4.735,-4.973 -3.12,-6.317 -3.327,-331.254c-0.036,-56.388 -3.688,-63.636 15.258,-67.012Z" style="fill:#ddbe84;"/><path d="M1170.343,1170.918c-76.042,-6.909 -28.784,-102.215 19.976,-65.889c9.676,7.208 34.82,53.275 -19.976,65.889Z" style="fill:#ddbe84;"/></g><g><path d="M660.624,1339.591l-40.545,0l0,-28.69l163.839,0l0,28.69l-40.782,0l0,177.117c0,44.101 6.204,74.965 18.613,92.589c12.408,17.625 33.629,26.437 63.663,26.437c29.243,0 50.029,-8.891 62.358,-26.674c12.329,-17.783 18.494,-48.567 18.494,-92.352l0,-177.117l-40.545,0l0,-28.69l110.965,0l0,28.69l-40.782,0l0,182.096c0,54.06 -10.512,92.589 -31.535,115.588c-21.023,22.999 -56.431,34.499 -106.223,34.499c-49.318,0 -84.567,-11.618 -105.749,-34.854c-21.181,-23.236 -31.772,-61.805 -31.772,-115.707l0,-181.622Z" style="fill:#001b4d;fill-rule:nonzero;"/><path d="M658.54,1341.674l-38.462,0c-1.151,-0 -2.083,-0.933 -2.083,-2.083l0,-28.69c0,-1.151 0.933,-2.083 2.083,-2.083l163.839,0c1.151,0 2.083,0.933 2.083,2.083l0,28.69c-0,1.151 -0.933,2.083 -2.083,2.083l-38.699,0l0,175.034c0,43.517 5.989,73.999 18.233,91.39c12.064,17.136 32.759,25.553 61.959,25.553c28.412,0 48.667,-8.5 60.646,-25.778c12.168,-17.549 18.123,-47.955 18.123,-91.165l-0,-175.034l-38.462,0c-1.151,-0 -2.083,-0.933 -2.083,-2.083l0,-28.69c0,-1.151 0.933,-2.083 2.083,-2.083l110.965,0c1.151,0 2.083,0.933 2.083,2.083l0,28.69c-0,1.151 -0.933,2.083 -2.083,2.083l-38.699,0l0,180.013c0,54.737 -10.794,93.707 -32.081,116.994c-21.338,23.343 -57.223,35.176 -107.761,35.176c-50.06,0 -85.788,-11.948 -107.288,-35.534c-21.446,-23.526 -32.316,-62.536 -32.316,-117.11l-0,-179.539Zm4.167,-2.083l0,181.622c0,53.229 10.311,91.357 31.228,114.303c20.863,22.887 55.633,34.175 104.209,34.175c49.047,0 83.977,-11.166 104.685,-33.821c20.76,-22.711 30.989,-60.8 30.989,-114.183l0,-182.096c0,-1.151 0.933,-2.083 2.083,-2.083l38.699,-0l0,-24.523l-106.798,0l0,24.523l38.462,0c1.151,-0 2.083,0.933 2.083,2.083l0,177.117c0,44.36 -6.374,75.523 -18.865,93.539c-12.68,18.288 -33.997,27.571 -64.071,27.571c-30.866,0 -52.613,-9.207 -65.366,-27.321c-12.573,-17.858 -18.993,-49.103 -18.993,-93.789l0,-177.117c0,-1.151 0.933,-2.083 2.083,-2.083l38.699,-0l0,-24.523l-159.673,0l0,24.523l38.462,0c1.151,-0 2.083,0.933 2.083,2.083Z" style="fill:#fff;"/><path d="M1006.559,1664.898l0,-28.69l40.782,0l0,-296.618l-40.782,0l0,-28.69l164.076,0l0,28.69l-41.019,0l0,129.222l134.912,-129.222l-34.143,0l0,-28.69l119.026,0l0,28.69l-42.442,0l-114.521,109.305l155.541,187.313l31.535,0l0,28.69l-108.12,0l-141.788,-171.901l0,143.211l41.019,0l0,28.69l-164.076,0Z" style="fill:#001b4d;fill-rule:nonzero;"/><path d="M1004.476,1664.898l0,-28.69c-0,-1.151 0.933,-2.083 2.083,-2.083l38.699,-0l-0,-292.451l-38.699,0c-1.151,-0 -2.083,-0.933 -2.083,-2.083l0,-28.69c-0,-1.151 0.933,-2.083 2.083,-2.083l164.076,0c1.151,0 2.083,0.933 2.083,2.083l0,28.69c0,1.151 -0.933,2.083 -2.083,2.083l-38.936,-0l-0,122.258l127.642,-122.258l-28.956,-0c-1.151,-0 -2.083,-0.933 -2.083,-2.083l0,-28.69c-0,-1.151 0.933,-2.083 2.083,-2.083l119.026,0c1.151,0 2.083,0.933 2.083,2.083l0,28.69c0,1.151 -0.933,2.083 -2.083,2.083l-41.607,-0l-112.511,107.387l153.674,185.064l30.557,0c1.151,0 2.083,0.933 2.083,2.083l0,28.69c-0,1.151 -0.933,2.083 -2.083,2.083l-108.12,0c-0.622,-0 -1.211,-0.278 -1.607,-0.758l-138.098,-167.426l-0,135.328l38.936,0c1.151,0 2.083,0.933 2.083,2.083l0,28.69c0,1.151 -0.933,2.083 -2.083,2.083l-164.076,0c-1.151,-0 -2.083,-0.933 -2.083,-2.083Zm4.167,-2.083l159.91,-0l0,-24.523l-38.936,0c-1.151,0 -2.083,-0.933 -2.083,-2.083l0,-143.211c0,-0.879 0.552,-1.664 1.379,-1.961c0.827,-0.297 1.752,-0.043 2.311,0.635l141.164,171.143l105.054,-0l0,-24.523l-29.452,0c-0.62,0 -1.207,-0.276 -1.603,-0.752l-155.541,-187.313c-0.699,-0.842 -0.628,-2.082 0.164,-2.838l114.521,-109.305c0.388,-0.37 0.903,-0.576 1.438,-0.576l40.358,-0l0,-24.523l-114.86,0l-0,24.523l32.06,0c0.851,-0 1.616,0.517 1.933,1.307c0.317,0.79 0.122,1.692 -0.492,2.281l-134.912,129.222c-0.603,0.577 -1.492,0.739 -2.259,0.412c-0.767,-0.328 -1.265,-1.082 -1.265,-1.916l0,-129.222c0,-1.151 0.933,-2.083 2.083,-2.083l38.936,-0l0,-24.523l-159.91,0l0,24.523l38.699,0c1.151,-0 2.083,0.933 2.083,2.083l0,296.618c-0,1.151 -0.933,2.083 -2.083,2.083l-38.699,0l0,24.523Z" style="fill:#fff;"/></g><g><path d="M253.438,1120.807l0,-42.331l60.173,0l0,-437.652l-60.173,0l0,-42.331l267.629,0c52.476,0 94.107,13.819 124.893,41.456c30.786,27.637 46.179,64.662 46.179,111.075c0,46.646 -15.451,83.904 -46.354,111.774c-30.903,27.871 -72.476,41.806 -124.719,41.806l-86.061,0l0,173.871l75.916,0l0,42.331l-257.483,0Zm181.568,-258.533l35.334,0c27.288,0 49.036,-10.087 65.245,-30.261c16.209,-20.174 24.314,-47.17 24.314,-80.988c0,-33.585 -8.046,-60.348 -24.139,-80.289c-16.093,-19.941 -37.9,-29.911 -65.42,-29.911l-35.334,0l0,221.45Z" style="fill:#001b4d;fill-rule:nonzero;"/><path d="M251.355,1120.807l0,-42.331c-0,-1.151 0.933,-2.083 2.083,-2.083l58.089,-0l0,-433.485l-58.089,0c-1.151,-0 -2.083,-0.933 -2.083,-2.083l-0,-42.331c-0,-1.151 0.933,-2.083 2.083,-2.083l267.629,0c53.07,0 95.151,14.039 126.285,41.989c31.22,28.027 46.871,65.558 46.871,112.625c0,47.298 -15.707,85.061 -47.042,113.321c-31.254,28.187 -73.278,42.342 -126.114,42.342l-83.978,-0l0,169.705l73.832,0c1.151,0 2.083,0.933 2.083,2.083l-0,42.331c-0,1.151 -0.933,2.083 -2.083,2.083l-257.483,0c-1.151,0 -2.083,-0.933 -2.083,-2.083Zm4.167,-2.083l253.317,0l-0,-38.164l-73.832,0c-1.151,0 -2.083,-0.933 -2.083,-2.083l-0,-173.871c0,-1.151 0.933,-2.083 2.083,-2.083l86.061,0c51.65,0 92.771,-13.716 123.323,-41.27c30.47,-27.481 45.666,-64.234 45.666,-110.227c0,-45.758 -15.136,-82.277 -45.487,-109.524c-30.438,-27.325 -71.619,-40.923 -123.502,-40.923l-265.545,0l-0,38.164l58.089,0c1.151,-0 2.083,0.933 2.083,2.083l-0,437.652c0,1.151 -0.933,2.083 -2.083,2.083l-58.089,0l0,38.164Zm177.401,-256.45l-0,-221.45c0,-1.151 0.933,-2.083 2.083,-2.083l35.334,0c28.208,0 50.547,10.247 67.042,30.686c16.359,20.271 24.601,47.457 24.601,81.597c0,34.371 -8.299,61.789 -24.773,82.293c-16.615,20.679 -38.899,31.04 -66.87,31.04l-35.334,0c-1.151,-0 -2.083,-0.933 -2.083,-2.083Zm4.167,-2.083l33.251,0c26.604,0 47.818,-9.814 63.621,-29.483c15.944,-19.845 23.855,-46.418 23.855,-79.683c0,-33.03 -7.85,-59.369 -23.677,-78.98c-15.691,-19.443 -36.966,-29.136 -63.799,-29.136l-33.251,-0l-0,217.283Z" style="fill:#fff;"/><path d="M738.318,1120.807l0,-42.331l60.173,0l0,-437.652l-60.173,0l0,-42.331l278.824,0c57.374,0 100.405,10.728 129.092,32.185c28.687,21.457 43.031,53.759 43.031,96.906c0,31.019 -9.912,55.625 -29.737,73.817c-19.824,18.192 -49.211,29.62 -88.16,34.284c47.112,4.898 83.262,18.891 108.451,41.981c25.189,23.09 37.783,53.759 37.783,92.008c0,51.777 -17.55,89.909 -52.651,114.398c-35.101,24.489 -90.201,36.733 -165.3,36.733l-261.332,0Zm181.568,-304.362l41.281,0c36.15,0 62.913,-7.288 80.289,-21.865c17.375,-14.577 26.063,-36.908 26.063,-66.995c0,-30.32 -8.455,-52.36 -25.364,-66.12c-16.909,-13.76 -43.905,-20.641 -80.988,-20.641l-41.281,0l0,175.62Zm0,262.031l45.13,0c39.882,0 69.502,-8.863 88.86,-26.588c19.358,-17.725 29.037,-45.13 29.037,-82.213c0,-37.316 -9.737,-65.187 -29.212,-83.612c-19.475,-18.425 -49.036,-27.637 -88.685,-27.637l-45.13,0l0,220.05Z" style="fill:#001b4d;fill-rule:nonzero;"/><path d="M736.235,1120.807l0,-42.331c0,-1.151 0.933,-2.083 2.083,-2.083l58.089,-0l0,-433.485l-58.089,0c-1.151,-0 -2.083,-0.933 -2.083,-2.083l0,-42.331c0,-1.151 0.933,-2.083 2.083,-2.083l278.824,0c57.939,0 101.37,10.932 130.339,32.6c29.191,21.834 43.866,54.669 43.866,98.574c0,31.673 -10.169,56.777 -30.411,75.352c-17.461,16.023 -42.219,26.922 -74.313,32.605c40.359,6.201 71.881,19.762 94.603,40.59c25.613,23.479 38.458,54.65 38.458,93.544c0,52.568 -17.905,91.244 -53.542,116.107c-35.359,24.669 -90.841,37.108 -166.492,37.108l-261.332,0c-1.151,0 -2.083,-0.933 -2.083,-2.083Zm4.167,-2.083l259.248,0c74.547,0 129.265,-12.05 164.108,-36.359c34.564,-24.115 51.76,-61.704 51.76,-112.69c0,-37.604 -12.343,-67.772 -37.107,-90.473c-24.906,-22.83 -60.675,-36.602 -107.259,-41.445c-1.055,-0.11 -1.86,-0.995 -1.868,-2.056c-0.008,-1.061 0.782,-1.959 1.836,-2.085c38.424,-4.602 67.442,-15.804 86.999,-33.751c19.407,-17.809 29.062,-41.916 29.062,-72.282c0,-42.389 -14.012,-74.158 -42.195,-95.238c-28.404,-21.245 -71.035,-31.77 -127.844,-31.77l-276.74,0l-0,38.164l58.089,0c1.151,-0 2.083,0.933 2.083,2.083l0,437.652c-0,1.151 -0.933,2.083 -2.083,2.083l-58.089,0l-0,38.164Zm177.401,-302.279l0,-175.62c-0,-1.151 0.933,-2.083 2.083,-2.083l41.281,0c37.7,0 65.113,7.119 82.303,21.108c17.335,14.107 26.132,36.653 26.132,67.736c0,30.822 -9.007,53.658 -26.808,68.591c-17.672,14.825 -44.86,22.352 -81.628,22.352l-41.281,0c-1.151,-0 -2.083,-0.933 -2.083,-2.083Zm4.167,-2.083l39.198,-0c35.533,0 61.871,-7.05 78.95,-21.378c16.951,-14.22 25.319,-36.048 25.319,-65.399c0,-29.556 -8.112,-51.09 -24.595,-64.504c-16.628,-13.532 -43.207,-20.173 -79.673,-20.173l-39.198,0l-0,171.454Zm-4.167,264.115l0,-220.05c-0,-1.151 0.933,-2.083 2.083,-2.083l45.13,0c40.305,0 70.32,9.478 90.117,28.207c19.836,18.767 29.863,47.117 29.863,85.125c0,37.795 -9.984,65.684 -29.713,83.749c-19.672,18.013 -49.738,27.135 -90.267,27.135l-45.13,0c-1.151,0 -2.083,-0.933 -2.083,-2.083Zm4.167,-2.083l43.046,0c39.235,0 68.409,-8.603 87.453,-26.041c18.986,-17.385 28.36,-44.305 28.36,-80.676c0,-36.624 -9.447,-64.016 -28.56,-82.099c-19.152,-18.12 -48.26,-27.068 -87.253,-27.068l-43.046,-0l0,215.884Z" style="fill:#fff;"/><path d="M1746.562,971.774c-12.361,53.876 -34.576,93.874 -66.645,119.996c-32.069,26.122 -75.158,39.182 -129.266,39.182c-79.531,0 -142.327,-24.314 -188.39,-72.942c-46.062,-48.628 -69.094,-114.573 -69.094,-197.835c0,-83.496 23.031,-149.557 69.094,-198.185c46.062,-48.628 108.859,-72.942 188.39,-72.942c27.754,0 56.791,3.732 87.111,11.195c30.32,7.463 62.272,18.775 95.857,33.935l0,128.392l-39.882,0c-8.163,-43.847 -23.031,-76.674 -44.605,-98.48c-21.574,-21.807 -50.086,-32.71 -85.536,-32.71c-45.946,0 -79.997,18.717 -102.154,56.15c-22.157,37.433 -33.235,94.982 -33.235,172.647c0,77.665 11.078,135.155 33.235,172.472c22.157,37.316 56.324,55.975 102.504,55.975c31.486,0 57.141,-9.679 76.965,-29.037c19.824,-19.358 34.168,-48.628 43.031,-87.81l62.622,0Z" style="fill:#001b4d;fill-rule:nonzero;"/><path d="M1748.593,972.24c-12.483,54.406 -34.975,94.766 -67.36,121.145c-32.4,26.391 -75.915,39.65 -130.582,39.65c-80.178,0 -143.465,-24.569 -189.902,-73.593c-46.401,-48.986 -69.665,-115.394 -69.665,-199.268c0,-84.108 23.264,-150.633 69.665,-199.618c46.438,-49.024 109.724,-73.593 189.902,-73.593c27.913,0 57.116,3.749 87.609,11.255c30.433,7.491 62.505,18.842 96.216,34.059c0.746,0.337 1.226,1.08 1.226,1.899l0,128.392c-0,1.151 -0.933,2.083 -2.083,2.083l-39.882,0c-1.004,-0 -1.864,-0.715 -2.048,-1.702c-8.071,-43.351 -22.708,-75.836 -44.038,-97.397c-21.196,-21.425 -49.226,-32.092 -84.055,-32.092c-45.133,0 -78.597,18.357 -100.361,55.127c-22.018,37.2 -32.944,94.405 -32.944,171.586c0,77.179 10.925,134.325 32.943,171.408c21.766,36.658 55.348,54.955 100.712,54.955c30.884,0 56.064,-9.456 75.51,-28.444c19.585,-19.124 33.698,-48.07 42.454,-86.779c0.215,-0.95 1.058,-1.624 2.032,-1.624l62.622,0c0.634,0 1.234,0.289 1.63,0.785c0.395,0.496 0.543,1.146 0.401,1.764Zm-4.656,1.617l-58.336,0c-8.998,38.84 -23.447,67.894 -43.235,87.217c-20.203,19.728 -46.334,29.63 -78.421,29.63c-46.994,0 -81.747,-19.019 -104.295,-56.994c-22.295,-37.55 -33.527,-95.384 -33.527,-173.536c0,-78.149 11.231,-136.041 33.525,-173.708c22.549,-38.096 57.187,-57.172 103.947,-57.172c36.072,0 65.066,11.14 87.017,33.328c21.537,21.77 36.528,54.372 44.851,97.862l36.072,0l0,-124.962c-33.011,-14.826 -64.434,-25.914 -94.271,-33.258c-30.146,-7.421 -59.017,-11.135 -86.613,-11.135c-78.883,0 -141.19,24.059 -186.877,72.291c-45.724,48.271 -68.523,113.87 -68.523,196.753c0,82.65 22.799,148.132 68.523,196.403c45.687,48.232 107.994,72.291 186.877,72.291c53.55,0 96.213,-12.862 127.951,-38.714c31.245,-25.451 52.986,-64.237 65.335,-116.297Z" style="fill:#fff;"/></g></svg>